<svg xmlns="http://www.w3.org/2000/svg" viewBox="0 0 48 48"><defs><style>.a,.b,.c{fill:none;}.b,.c{stroke:#000;stroke-linecap:round;stroke-width:4px;}.b{stroke-miterlimit:10;}.c{stroke-linejoin:round;}</style></defs><title>508_s_f</title><rect class="a" width="48" height="48"/><path class="b" d="M9,8c-.93.17-1,1.42-.93,2.12C9,27,22,39,38,39.94c.65,0,2-.24,2-.94"/><path class="b" d="M17.35,20.78a26.08,26.08,0,0,0,9.93,9.9"/><polyline class="c" points="40 29 31.01 26.98 27.28 30.68"/><polyline class="c" points="19 8 21.02 16.99 17.36 20.78"/><line class="b" x1="9" y1="8" x2="19" y2="8"/><line class="b" x1="40" y1="29" x2="40" y2="39"/><polyline class="c" points="40 17 40 8 31 8"/><line class="c" x1="30" y1="18" x2="34" y2="14"/></svg>